<?xml version="1.0" encoding="utf-8"?>
<!-- Generator: Adobe Illustrator 23.0.0, SVG Export Plug-In . SVG Version: 6.00 Build 0)  -->
<svg version="1.1" id="Layer_1" xmlns="http://www.w3.org/2000/svg" xmlns:xlink="http://www.w3.org/1999/xlink" x="0px" y="0px"
	 viewBox="0 0 640 480" style="enable-background:new 0 0 640 480;" xml:space="preserve">
<style type="text/css">
	.st0{fill:#00BDFF;}
</style>
<g id="XMLID_1_">
	<g>
		<path class="st0" d="M254.5,155.08l59.19-29.18c0.51-0.25,1.11-0.25,1.62,0l137.09,67.12c1.74,0.86,1.13,3.48-0.81,3.48H441.5
			h-253h-10.14c-1.94,0-2.55-2.62-0.81-3.48l46.95-23.14V133.5h10h14.46h5.54V155.08z"/>
		<path class="st0" d="M441.5,196.5v133.91c0,5.57-4.52,10.09-10.09,10.09H387.5v-90h-55v90H198.59c-5.57,0-10.09-4.52-10.09-10.09
			V196.5H441.5z M269.5,286.5v-54h-45v54H269.5z"/>
		<rect x="341.5" y="259.5" class="st0" width="36" height="81"/>
		<rect x="233.5" y="241.5" class="st0" width="28" height="37"/>
		<path class="st0" d="M254.5,116.5c2,5-5.54,17-5.54,17H234.5l-1-8c0,0-4.49-8.71,1-12c5-3-3-8-3-8s-5-3-5-10s5-8,5-8
			c7-2,0-13,10-13c10.05,0,13,13,13,18s-8,6-11,10S252.5,111.5,254.5,116.5z"/>
	</g>
	<g>
	</g>
</g>
<path class="st0" d="M327.86,132.04"/>
</svg>
