<svg aria-hidden="true" style="position: absolute; width: 0; height: 0; overflow: hidden;" version="1.1" xmlns="http://www.w3.org/2000/svg" xmlns:xlink="http://www.w3.org/1999/xlink">
<defs>
<symbol id="icon-notifications" viewBox="0 0 20 20">
<title>notifications</title>
<path d="M4 8c0-0.001 0-0.002 0-0.003 0-2.608 1.664-4.827 3.988-5.654l0.042-0.013c-0.016-0.095-0.025-0.204-0.025-0.315 0-1.105 0.895-2 2-2s2 0.895 2 2c0 0.111-0.009 0.22-0.027 0.327l0.002-0.012c2.361 0.843 4.020 3.060 4.020 5.664 0 0.002 0 0.004 0 0.006v-0 6l3 2v1h-18v-1l3-2v-6zM12 18c0 1.105-0.895 2-2 2s-2-0.895-2-2v0h4z"></path>
</symbol>
<symbol id="icon-users" viewBox="0 0 16 16">
<title>users</title>
<path d="M9 9.555v-2.555c0-1.657-1.343-3-3-3s-3 1.343-3 3v2.555c-1.786 0.693-3 1.969-3 3.445 0 0.177 0 2 0 2 0 0.553 0.447 1 1 1h10c0.553 0 1-0.447 1-1 0 0 0-1.823 0-2 0-1.477-1.214-2.752-3-3.445zM5 7c0-0.553 0.447-1 1-1s1 0.447 1 1v3c0 0.553-0.447 1-1 1s-1-0.447-1-1v-3zM10 14h-8v-1c0-0.607 0.554-1.146 1.409-1.513 0.519 0.9 1.479 1.513 2.591 1.513s2.072-0.612 2.591-1.513c0.855 0.367 1.409 0.905 1.409 1.513v1zM13 5.555v-2.555c0-1.657-1.343-3-3-3s-3 1.343-3 3v0.142c0.79 0.204 1.479 0.642 2 1.238v-1.38c0-0.553 0.447-1 1-1s1 0.447 1 1v3c0 0.553-0.447 1-1 1v2c1.112 0 2.072-0.612 2.591-1.513 0.855 0.367 1.409 0.905 1.409 1.513v1h-3.649c1.007 0.519 1.78 1.203 2.221 2h2.429c0.553 0 1-0.447 1-1 0 0 0-1.823 0-2 0-1.477-1.214-2.752-3-3.445z"></path>
</symbol>
<symbol id="icon-home" viewBox="0 0 16 16">
<title>home</title>
<path d="M16 9.226l-8-6.21-8 6.21v-2.532l8-6.21 8 6.21zM14 9v6h-4v-4h-4v4h-4v-6l6-4.5z"></path>
</symbol>
<symbol id="icon-clock" viewBox="0 0 16 16">
<title>clock</title>
<path d="M10.293 11.707l-3.293-3.293v-4.414h2v3.586l2.707 2.707zM8 0c-4.418 0-8 3.582-8 8s3.582 8 8 8 8-3.582 8-8-3.582-8-8-8zM8 14c-3.314 0-6-2.686-6-6s2.686-6 6-6c3.314 0 6 2.686 6 6s-2.686 6-6 6z"></path>
</symbol>
<symbol id="icon-calendar" viewBox="0 0 16 16">
<title>calendar</title>
<path d="M5 6h2v2h-2zM8 6h2v2h-2zM11 6h2v2h-2zM2 12h2v2h-2zM5 12h2v2h-2zM8 12h2v2h-2zM5 9h2v2h-2zM8 9h2v2h-2zM11 9h2v2h-2zM2 9h2v2h-2zM13 0v1h-2v-1h-7v1h-2v-1h-2v16h15v-16h-2zM14 15h-13v-11h13v11z"></path>
</symbol>
<symbol id="icon-bubble" viewBox="0 0 16 16">
<title>bubble</title>
<path d="M8 1c4.418 0 8 2.91 8 6.5s-3.582 6.5-8 6.5c-0.424 0-0.841-0.027-1.247-0.079-1.718 1.718-3.77 2.027-5.753 2.072v-0.421c1.071-0.525 2-1.48 2-2.572 0-0.152-0.012-0.302-0.034-0.448-1.809-1.192-2.966-3.012-2.966-5.052 0-3.59 3.582-6.5 8-6.5z"></path>
</symbol>
<symbol id="icon-user" viewBox="0 0 16 16">
<title>user</title>
<path d="M9 11.041v-0.825c1.102-0.621 2-2.168 2-3.716 0-2.485 0-4.5-3-4.5s-3 2.015-3 4.5c0 1.548 0.898 3.095 2 3.716v0.825c-3.392 0.277-6 1.944-6 3.959h14c0-2.015-2.608-3.682-6-3.959z"></path>
</symbol>
<symbol id="icon-users1" viewBox="0 0 18 16">
<title>users1</title>
<path d="M12 12.041v-0.825c1.102-0.621 2-2.168 2-3.716 0-2.485 0-4.5-3-4.5s-3 2.015-3 4.5c0 1.548 0.898 3.095 2 3.716v0.825c-3.392 0.277-6 1.944-6 3.959h14c0-2.015-2.608-3.682-6-3.959z"></path>
<path d="M5.112 12.427c0.864-0.565 1.939-0.994 3.122-1.256-0.235-0.278-0.449-0.588-0.633-0.922-0.475-0.863-0.726-1.813-0.726-2.748 0-1.344 0-2.614 0.478-3.653 0.464-1.008 1.299-1.633 2.488-1.867-0.264-1.195-0.968-1.98-2.841-1.98-3 0-3 2.015-3 4.5 0 1.548 0.898 3.095 2 3.716v0.825c-3.392 0.277-6 1.944-6 3.959h4.359c0.227-0.202 0.478-0.393 0.753-0.573z"></path>
</symbol>
<symbol id="icon-binoculars" viewBox="0 0 16 16">
<title>binoculars</title>
<path d="M1 0h6v1h-6zM9 0h6v1h-6zM14.875 5h-0.875v-4h-4v4h-4v-4h-4v4h-0.875c-0.619 0-1.125 0.506-1.125 1.125v8.75c0 0.619 0.506 1.125 1.125 1.125h4.75c0.619 0 1.125-0.506 1.125-1.125v-5.875h2v5.875c0 0.619 0.506 1.125 1.125 1.125h4.75c0.619 0 1.125-0.506 1.125-1.125v-8.75c0-0.619-0.506-1.125-1.125-1.125zM5.438 15h-3.875c-0.309 0-0.563-0.225-0.563-0.5s0.253-0.5 0.563-0.5h3.875c0.309 0 0.563 0.225 0.563 0.5s-0.253 0.5-0.563 0.5zM8.5 8h-1c-0.275 0-0.5-0.225-0.5-0.5s0.225-0.5 0.5-0.5h1c0.275 0 0.5 0.225 0.5 0.5s-0.225 0.5-0.5 0.5zM14.438 15h-3.875c-0.309 0-0.563-0.225-0.563-0.5s0.253-0.5 0.563-0.5h3.875c0.309 0 0.563 0.225 0.563 0.5s-0.253 0.5-0.563 0.5z"></path>
</symbol>
<symbol id="icon-search" viewBox="0 0 16 16">
<title>search</title>
<path d="M15.504 13.616l-3.79-3.223c-0.392-0.353-0.811-0.514-1.149-0.499 0.895-1.048 1.435-2.407 1.435-3.893 0-3.314-2.686-6-6-6s-6 2.686-6 6 2.686 6 6 6c1.486 0 2.845-0.54 3.893-1.435-0.016 0.338 0.146 0.757 0.499 1.149l3.223 3.79c0.552 0.613 1.453 0.665 2.003 0.115s0.498-1.452-0.115-2.003zM6 10c-2.209 0-4-1.791-4-4s1.791-4 4-4 4 1.791 4 4-1.791 4-4 4z"></path>
</symbol>
<symbol id="icon-cog" viewBox="0 0 16 16">
<title>cog</title>
<path d="M14.59 9.535c-0.839-1.454-0.335-3.317 1.127-4.164l-1.572-2.723c-0.449 0.263-0.972 0.414-1.529 0.414-1.68 0-3.042-1.371-3.042-3.062h-3.145c0.004 0.522-0.126 1.051-0.406 1.535-0.839 1.454-2.706 1.948-4.17 1.106l-1.572 2.723c0.453 0.257 0.845 0.634 1.123 1.117 0.838 1.452 0.336 3.311-1.12 4.16l1.572 2.723c0.448-0.261 0.967-0.41 1.522-0.41 1.675 0 3.033 1.362 3.042 3.046h3.145c-0.001-0.517 0.129-1.040 0.406-1.519 0.838-1.452 2.7-1.947 4.163-1.11l1.572-2.723c-0.45-0.257-0.839-0.633-1.116-1.113zM8 11.24c-1.789 0-3.24-1.45-3.24-3.24s1.45-3.24 3.24-3.24c1.789 0 3.24 1.45 3.24 3.24s-1.45 3.24-3.24 3.24z"></path>
</symbol>
<symbol id="icon-heart" viewBox="0 0 16 16">
<title>heart</title>
<path d="M11.8 1c-1.682 0-3.129 1.368-3.799 2.797-0.671-1.429-2.118-2.797-3.8-2.797-2.318 0-4.2 1.882-4.2 4.2 0 4.716 4.758 5.953 8 10.616 3.065-4.634 8-6.050 8-10.616 0-2.319-1.882-4.2-4.2-4.2z"></path>
</symbol>
<symbol id="icon-plus" viewBox="0 0 16 16">
<title>plus</title>
<path d="M15.5 6h-5.5v-5.5c0-0.276-0.224-0.5-0.5-0.5h-3c-0.276 0-0.5 0.224-0.5 0.5v5.5h-5.5c-0.276 0-0.5 0.224-0.5 0.5v3c0 0.276 0.224 0.5 0.5 0.5h5.5v5.5c0 0.276 0.224 0.5 0.5 0.5h3c0.276 0 0.5-0.224 0.5-0.5v-5.5h5.5c0.276 0 0.5-0.224 0.5-0.5v-3c0-0.276-0.224-0.5-0.5-0.5z"></path>
</symbol>
<symbol id="icon-cancel-circle" viewBox="0 0 16 16">
<title>cancel-circle</title>
<path d="M8 0c-4.418 0-8 3.582-8 8s3.582 8 8 8 8-3.582 8-8-3.582-8-8-8zM8 14.5c-3.59 0-6.5-2.91-6.5-6.5s2.91-6.5 6.5-6.5 6.5 2.91 6.5 6.5-2.91 6.5-6.5 6.5z"></path>
<path d="M10.5 4l-2.5 2.5-2.5-2.5-1.5 1.5 2.5 2.5-2.5 2.5 1.5 1.5 2.5-2.5 2.5 2.5 1.5-1.5-2.5-2.5 2.5-2.5z"></path>
</symbol>
<symbol id="icon-people" viewBox="0 0 24 24">
<title>people</title>
<path d="M15.984 12.984c2.344 0 7.031 1.172 7.031 3.516v2.484h-6v-2.484c0-1.5-0.797-2.625-1.969-3.469 0.328-0.047 0.656-0.047 0.938-0.047zM8.016 12.984c2.344 0 6.984 1.172 6.984 3.516v2.484h-14.016v-2.484c0-2.344 4.688-3.516 7.031-3.516zM8.016 11.016c-1.641 0-3-1.359-3-3s1.359-3 3-3 2.953 1.359 2.953 3-1.313 3-2.953 3zM15.984 11.016c-1.641 0-3-1.359-3-3s1.359-3 3-3 3 1.359 3 3-1.359 3-3 3z"></path>
</symbol>
<symbol id="icon-group" viewBox="0 0 30 28">
<title>group</title>
<path d="M9.266 14c-1.625 0.047-3.094 0.75-4.141 2h-2.094c-1.563 0-3.031-0.75-3.031-2.484 0-1.266-0.047-5.516 1.937-5.516 0.328 0 1.953 1.328 4.062 1.328 0.719 0 1.406-0.125 2.078-0.359-0.047 0.344-0.078 0.688-0.078 1.031 0 1.422 0.453 2.828 1.266 4zM26 23.953c0 2.531-1.672 4.047-4.172 4.047h-13.656c-2.5 0-4.172-1.516-4.172-4.047 0-3.531 0.828-8.953 5.406-8.953 0.531 0 2.469 2.172 5.594 2.172s5.063-2.172 5.594-2.172c4.578 0 5.406 5.422 5.406 8.953zM10 4c0 2.203-1.797 4-4 4s-4-1.797-4-4 1.797-4 4-4 4 1.797 4 4zM21 10c0 3.313-2.688 6-6 6s-6-2.688-6-6 2.688-6 6-6 6 2.688 6 6zM30 13.516c0 1.734-1.469 2.484-3.031 2.484h-2.094c-1.047-1.25-2.516-1.953-4.141-2 0.812-1.172 1.266-2.578 1.266-4 0-0.344-0.031-0.688-0.078-1.031 0.672 0.234 1.359 0.359 2.078 0.359 2.109 0 3.734-1.328 4.062-1.328 1.984 0 1.937 4.25 1.937 5.516zM28 4c0 2.203-1.797 4-4 4s-4-1.797-4-4 1.797-4 4-4 4 1.797 4 4z"></path>
</symbol>

<symbol id="icon-location" viewBox="0 0 16 16">
<title>location</title>
<path d="M8 0c-2.761 0-5 2.239-5 5 0 5 5 11 5 11s5-6 5-11c0-2.761-2.239-5-5-5zM8 8c-1.657 0-3-1.343-3-3s1.343-3 3-3 3 1.343 3 3-1.343 3-3 3z"></path>
</symbol>

<symbol id="icon-image" viewBox="0 0 32 32">
<title>image</title>
<path d="M29.996 4c0.001 0.001 0.003 0.002 0.004 0.004v23.993c-0.001 0.001-0.002 0.003-0.004 0.004h-27.993c-0.001-0.001-0.003-0.002-0.004-0.004v-23.993c0.001-0.001 0.002-0.003 0.004-0.004h27.993zM30 2h-28c-1.1 0-2 0.9-2 2v24c0 1.1 0.9 2 2 2h28c1.1 0 2-0.9 2-2v-24c0-1.1-0.9-2-2-2v0z"></path>
<path d="M26 9c0 1.657-1.343 3-3 3s-3-1.343-3-3 1.343-3 3-3 3 1.343 3 3z"></path>
<path d="M28 26h-24v-4l7-12 8 10h2l7-6z"></path>
</symbol>

<symbol id="icon-images" viewBox="0 0 36 32">
<title>images</title>
<path d="M34 4h-2v-2c0-1.1-0.9-2-2-2h-28c-1.1 0-2 0.9-2 2v24c0 1.1 0.9 2 2 2h2v2c0 1.1 0.9 2 2 2h28c1.1 0 2-0.9 2-2v-24c0-1.1-0.9-2-2-2zM4 6v20h-1.996c-0.001-0.001-0.003-0.002-0.004-0.004v-23.993c0.001-0.001 0.002-0.003 0.004-0.004h27.993c0.001 0.001 0.003 0.002 0.004 0.004v1.996h-24c-1.1 0-2 0.9-2 2v0zM34 29.996c-0.001 0.001-0.002 0.003-0.004 0.004h-27.993c-0.001-0.001-0.003-0.002-0.004-0.004v-23.993c0.001-0.001 0.002-0.003 0.004-0.004h27.993c0.001 0.001 0.003 0.002 0.004 0.004v23.993z"></path>
<path d="M30 11c0 1.657-1.343 3-3 3s-3-1.343-3-3 1.343-3 3-3 3 1.343 3 3z"></path>
<path d="M32 28h-24v-4l7-12 8 10h2l7-6z"></path>
</symbol>

<symbol id="icon-exit" viewBox="0 0 32 32">
<title>exit</title>
<path d="M24 20v-4h-10v-4h10v-4l6 6zM22 18v8h-10v6l-12-6v-26h22v10h-2v-8h-16l8 4v18h8v-6z"></path>
</symbol>

<symbol id="icon-checkmark" viewBox="0 0 32 32">
<title>checkmark</title>
<path d="M27 4l-15 15-7-7-5 5 12 12 20-20z"></path>
</symbol>

<symbol id="icon-make-group" viewBox="0 0 16 16">
<title>make-group</title>
<path d="M5 2h-2c-0.55 0-1 0.45-1 1v2c0 0.55 0.45 1 1 1h2c0.55 0 1-0.45 1-1v-2c0-0.55-0.45-1-1-1z"></path>
<path d="M11 6h2c0.55 0 1-0.45 1-1v-2c0-0.55-0.45-1-1-1h-2c-0.55 0-1 0.45-1 1v2c0 0.55 0.45 1 1 1zM11 3h2v2h-2v-2z"></path>
<path d="M5 10h-2c-0.55 0-1 0.45-1 1v2c0 0.55 0.45 1 1 1h2c0.55 0 1-0.45 1-1v-2c0-0.55-0.45-1-1-1zM5 13h-2v-2h2v2z"></path>
<path d="M13 10h-2c-0.55 0-1 0.45-1 1v2c0 0.55 0.45 1 1 1h2c0.55 0 1-0.45 1-1v-2c0-0.55-0.45-1-1-1z"></path>
<path d="M14 8h-1c-1.336 0-2.591-0.52-3.536-1.464s-1.464-2.2-1.464-3.536v-1c0-1.1-0.9-2-2-2h-4c-1.1 0-2 0.9-2 2v4c0 1.1 0.9 2 2 2h1c1.336 0 2.591 0.52 3.536 1.464s1.464 2.2 1.464 3.536v1c0 1.1 0.9 2 2 2h4c1.1 0 2-0.9 2-2v-4c0-1.1-0.9-2-2-2zM15 14c0 0.265-0.105 0.515-0.295 0.705s-0.44 0.295-0.705 0.295h-4c-0.265 0-0.515-0.105-0.705-0.295s-0.295-0.44-0.295-0.705v-1c0-3.314-2.686-6-6-6h-1c-0.265 0-0.515-0.105-0.705-0.295s-0.295-0.441-0.295-0.705v-4c0-0.265 0.105-0.515 0.295-0.705s0.44-0.295 0.705-0.295h4c0.265 0 0.515 0.105 0.705 0.295s0.295 0.44 0.295 0.705v1c0 3.314 2.686 6 6 6h1c0.265 0 0.515 0.105 0.705 0.295s0.295 0.44 0.295 0.705v4z"></path>
</symbol>
</defs>
</svg>
